<?xml version="1.0" encoding="UTF-8"?><svg id="uuid-63f3a469-4069-4fc0-bd73-ba40a3efe6a0" xmlns="http://www.w3.org/2000/svg" width="336.95" height="37.28" viewBox="0 0 336.95 37.28"><g id="uuid-3d158c77-dc2a-4b2f-b817-52ebca82e2e6"><g><g><path d="m47.89,0c3.8,0,7.35.95,10.2,2.55v5.2c-2.7-2-6.4-3.35-10.24-3.35-8.25,0-14.04,6.2-14.04,14.24s5.8,14.24,14.44,14.24c4,0,7.55-1.35,10.39-3.65v5.25c-2.9,1.85-6.85,2.8-10.64,2.8-10.99,0-18.94-7.95-18.94-18.54S36.55,0,47.89,0Z" fill="#255793"/><path d="m78.83.55h20.89v4.3h-16.14v10.99h14.14v4.15h-14.14v12.44h16.59v4.3h-21.34V.55Z" fill="#255793"/><path d="m120.11.55h9.8c3.65,0,7.15.15,10.09,1.8,3,1.65,5,4.45,5,8.45s-1.9,6.85-4.65,8.5c-1.3.8-2.65,1.25-4.15,1.5l11.59,15.94h-5.75l-11.04-15.49h-6.15v15.49h-4.75V.55Zm10.89,16.79c3.2,0,5.45-.4,7.1-1.65,1.35-1,2.15-2.5,2.15-4.5,0-2.3-1.05-4.1-2.95-5.15-1.95-1.05-4.25-1.2-7.75-1.2h-4.7v12.49h6.15Z" fill="#255793"/><path d="m180.86,0c3.8,0,7.35.95,10.19,2.55v5.2c-2.7-2-6.4-3.35-10.24-3.35-8.25,0-14.04,6.2-14.04,14.24s5.8,14.24,14.44,14.24c4,0,7.55-1.35,10.4-3.65v5.25c-2.9,1.85-6.85,2.8-10.64,2.8-10.99,0-18.94-7.95-18.94-18.54S169.51,0,180.86,0Z" fill="#255793"/><path d="m220.76.55h4.55l14.94,36.18h-5.1l-4.05-10.09h-16.29l-4.1,10.09h-4.85L220.76.55Zm-4.3,21.94h12.99l-2.95-7.5c-1.15-2.9-2.35-6-3.45-8.95h-.1c-1.1,2.95-2.3,6-3.55,9.1l-2.95,7.35Z" fill="#255793"/><path d="m256.17,36.73V.55h4.5l15.14,20.09c2.1,2.75,4.2,5.6,6.25,8.45l.1-.05c-.05-3.15-.1-6.8-.1-10.29V.55h4.6v36.18h-4.5l-15.14-20.09c-2.1-2.75-4.2-5.6-6.25-8.45l-.1.05c.05,3.15.1,6.8.1,10.29v18.19h-4.6Z" fill="#255793"/><path d="m317.46.55h4.55l14.94,36.18h-5.1l-4.05-10.09h-16.29l-4.1,10.09h-4.85L317.46.55Zm-4.3,21.94h12.99l-2.95-7.5c-1.15-2.9-2.35-6-3.45-8.95h-.1c-1.1,2.95-2.3,6-3.55,9.1l-2.95,7.35Z" fill="#255793"/></g><path d="m13.43,30.55c0-3.71-3.01-6.72-6.72-6.72S0,26.84,0,30.55s3.01,6.72,6.72,6.72,6.72-3.01,6.72-6.72Z" fill="#255793"/></g></g></svg>