<?xml version="1.0" encoding="UTF-8"?><svg id="uuid-6ef5d2e2-6a47-445e-a691-f1abdb77dfa5" xmlns="http://www.w3.org/2000/svg" width="396.01" height="86.99" viewBox="0 0 396.01 86.99"><g id="uuid-f4f79212-f4f4-41bf-8db4-b7ce5d1b98df"><g><g><path d="m65.78,67.92c-1.82,0-3.53-.41-5.08-1.13-2.11,1.56-4.37,2.79-6.73,3.71-.05.02-.11.04-.16.06-.62.24-1.25.46-1.89.65,0,0-.02,0-.03,0-.59.18-1.19.33-1.79.47-.13.03-.26.06-.38.09-.62.13-1.23.25-1.86.35-.07.01-.15.02-.22.03-.57.08-1.15.15-1.73.19-.13.01-.26.02-.39.03-.64.04-1.28.07-1.92.07-.18,0-.36,0-.53,0-.29,0-.57,0-.86-.02-.22-.01-.45-.03-.67-.04-.24-.02-.48-.03-.72-.05-.26-.02-.52-.05-.77-.08-.2-.02-.4-.05-.6-.08-.28-.04-.57-.09-.85-.13-.17-.03-.35-.06-.52-.09-.29-.06-.59-.12-.88-.18-.16-.04-.33-.07-.49-.11-.29-.07-.58-.15-.87-.23-.17-.05-.33-.09-.5-.14-.27-.08-.55-.17-.82-.25-.19-.06-.37-.12-.56-.19-.24-.09-.49-.17-.73-.27-.21-.08-.43-.17-.64-.25-.21-.08-.42-.17-.62-.26-.24-.11-.48-.22-.72-.33-.17-.08-.34-.16-.51-.24-.27-.13-.54-.27-.8-.41-.14-.07-.27-.15-.41-.22-.28-.16-.57-.32-.85-.49-.11-.07-.23-.14-.34-.21-.29-.18-.58-.36-.86-.55-.1-.07-.21-.14-.31-.21-.28-.19-.56-.39-.83-.59-.11-.08-.21-.16-.32-.24-.26-.2-.52-.4-.78-.61-.12-.1-.24-.2-.36-.3-.23-.2-.46-.39-.69-.6-.14-.13-.28-.26-.42-.39-.2-.19-.4-.37-.59-.57-.16-.16-.32-.33-.48-.49-.13-.14-.27-.27-.39-.4-.04-.04-.07-.09-.11-.13-.17-.18-.33-.37-.49-.55-.16-.18-.31-.35-.46-.53-.14-.17-.27-.34-.4-.51-.17-.21-.33-.42-.49-.63-.07-.1-.14-.19-.21-.29-1.3-1.78-2.37-3.66-3.21-5.62-.02-.06-.05-.11-.08-.17-.13-.31-.25-.62-.37-.94-.05-.13-.11-.26-.15-.4-.09-.26-.18-.52-.26-.78-.06-.19-.13-.38-.19-.58-.06-.21-.12-.41-.18-.62-.07-.25-.15-.5-.21-.75-.03-.12-.05-.24-.08-.36-.14-.56-.25-1.12-.35-1.69-.04-.24-.09-.47-.13-.71-.03-.18-.05-.36-.07-.55-.04-.29-.08-.59-.11-.88-.02-.17-.03-.33-.04-.5-.03-.31-.05-.63-.07-.94,0-.17-.01-.33-.02-.5-.01-.32-.02-.63-.02-.95,0-.19,0-.38,0-.57,0-.29,0-.57.02-.86.01-.23.03-.46.04-.68.02-.24.03-.47.05-.71.02-.26.05-.53.09-.79.02-.2.05-.39.07-.59.04-.29.09-.58.14-.87.03-.17.06-.33.09-.5.06-.3.12-.61.19-.91.03-.15.07-.31.11-.46.07-.3.15-.6.23-.9.04-.16.09-.31.13-.47.08-.29.17-.57.27-.85.06-.17.12-.35.18-.52.09-.26.18-.52.28-.77.08-.2.15-.4.23-.59.09-.22.18-.44.28-.67.1-.23.2-.45.31-.68.09-.19.18-.37.27-.56.12-.25.25-.5.38-.75.08-.16.17-.31.25-.46.15-.27.3-.53.46-.79.08-.13.16-.27.24-.4.17-.27.34-.54.51-.8.08-.12.17-.25.25-.37.18-.26.36-.52.55-.77.1-.13.19-.26.29-.39.18-.24.37-.47.56-.71.12-.15.24-.29.36-.44.18-.21.35-.41.54-.62.15-.17.31-.34.47-.51.16-.17.32-.34.49-.51.19-.2.39-.39.59-.58.11-.11.22-.22.33-.32.03-.02.05-.04.08-.07.47-.43.95-.85,1.45-1.24.11-.09.21-.17.32-.25.45-.35.91-.7,1.38-1.02.07-.05.13-.09.2-.14.52-.35,1.05-.68,1.59-1,.12-.07.24-.14.36-.2.53-.3,1.06-.59,1.61-.86.02,0,.03-.02.05-.03.6-.29,1.2-.56,1.81-.8.06-.02.12-.05.18-.07,3.31-1.31,6.91-2.04,10.68-2.04,5.85,0,11.29,1.74,15.85,4.73-2.15,3.2-3.88,6.7-5.12,10.42-2.96-2.31-6.68-3.69-10.73-3.69-.52,0-1.02.03-1.53.08,0,0,0,0,0,0-.44.04-.87.1-1.3.17-.05,0-.09.01-.14.02-.41.07-.81.16-1.22.25-.1.02-.19.05-.29.07-.38.1-.75.21-1.12.33-.12.04-.24.09-.35.13-.35.13-.7.25-1.04.4-.14.06-.28.14-.42.2-.47.22-.94.47-1.4.73-.28.17-.57.33-.85.51-.17.12-.34.24-.51.37-.26.19-.52.38-.78.58-.17.14-.34.29-.51.43-.15.13-.3.25-.45.38-.08.07-.14.15-.22.22-.23.22-.44.44-.65.67-.19.2-.38.4-.55.61-.18.22-.35.44-.53.66-.18.24-.36.47-.53.71-.15.22-.29.44-.43.66-.16.26-.33.52-.48.78-.13.23-.25.47-.36.71-.13.27-.27.53-.39.8-.11.26-.21.53-.31.79-.1.26-.2.52-.29.78-.09.28-.17.57-.24.85-.07.26-.15.53-.2.79-.06.28-.11.56-.15.85-.05.29-.1.57-.13.86-.03.26-.05.53-.07.79-.02.32-.04.64-.05.96,0,.25,0,.51,0,.76,0,.33.02.65.05.98.02.26.05.52.08.78.04.3.08.61.14.91.05.27.1.54.16.8.07.29.14.57.22.86.07.26.16.53.24.79.09.28.2.56.31.83.1.25.2.5.31.75.12.27.25.54.39.81.12.24.25.48.39.72.15.26.3.51.46.76.15.24.31.47.48.7.16.23.33.46.51.68.19.24.38.47.58.7.11.13.21.26.32.38.08.08.16.15.24.23.21.22.42.42.64.62.21.2.42.4.64.58.2.17.42.34.63.5.25.19.49.38.75.56.2.14.41.27.62.4.27.17.54.34.82.5.22.12.45.23.68.35.28.14.55.28.83.4.25.11.51.2.76.3.27.1.54.21.81.3.27.09.55.16.83.23.27.07.54.15.82.21.28.06.55.1.83.15.29.05.58.1.88.13.26.03.52.05.78.07.32.02.64.04.97.05.29,0,.58,0,.87,0,.23,0,.46-.01.69-.03.31-.02.62-.06.93-.1.22-.03.44-.05.66-.08.31-.05.62-.12.93-.19.55-.12,1.09-.27,1.63-.44.12-.04.25-.07.37-.12.35-.12.69-.27,1.04-.41.12-.05.24-.1.35-.15.35-.16.7-.33,1.04-.52.09-.05.18-.1.27-.15.36-.2.71-.41,1.05-.63.05-.03.09-.06.14-.09.23-.15.45-.29.67-.46,0,0,0-.01,0-.02-.08-.57-.14-1.15-.14-1.74,0-6.08,4.52-11.11,10.37-11.94,0-.14-.01-.27-.01-.4,0-5.56,1.46-10.79,4.01-15.32,2.46-4.39,5.95-8.13,10.13-10.89-1.23-1.62-2.56-3.15-4-4.59-1.47-1.47-3.05-2.83-4.72-4.08C62.23,3.2,53.24,0,43.5,0,19.47,0,0,19.47,0,43.5s19.47,43.5,43.5,43.5c9.74,0,18.74-3.2,25.99-8.61,1.67-1.25,3.25-2.61,4.72-4.08,1.44-1.43,2.77-2.97,4-4.59-1.86-1.23-3.58-2.67-5.14-4.26-2.03,1.54-4.55,2.46-7.28,2.46Z" fill="#255793"/><polygon points="11.61 73.08 11.61 73.08 11.61 73.08 11.61 73.08" fill="#255793"/><circle cx="65.78" cy="55.84" r="4.08" fill="#255793"/></g><g><path d="m106.95,25.08c3.8,0,7.35.95,10.2,2.55v5.2c-2.7-2-6.4-3.35-10.24-3.35-8.25,0-14.04,6.2-14.04,14.24s5.8,14.24,14.44,14.24c4,0,7.55-1.35,10.39-3.65v5.25c-2.9,1.85-6.85,2.8-10.64,2.8-10.99,0-18.94-7.95-18.94-18.54s7.5-18.74,18.84-18.74Z" fill="#255793"/><path d="m137.89,25.63h20.89v4.3h-16.14v10.99h14.14v4.15h-14.14v12.44h16.59v4.3h-21.34V25.63Z" fill="#255793"/><path d="m179.17,25.63h9.8c3.65,0,7.15.15,10.09,1.8,3,1.65,5,4.45,5,8.45s-1.9,6.85-4.65,8.5c-1.3.8-2.65,1.25-4.15,1.5l11.59,15.94h-5.75l-11.04-15.49h-6.15v15.49h-4.75V25.63Zm10.89,16.79c3.2,0,5.45-.4,7.1-1.65,1.35-1,2.15-2.5,2.15-4.5,0-2.3-1.05-4.1-2.95-5.15-1.95-1.05-4.25-1.2-7.75-1.2h-4.7v12.49h6.15Z" fill="#255793"/><path d="m239.91,25.08c3.8,0,7.35.95,10.19,2.55v5.2c-2.7-2-6.4-3.35-10.24-3.35-8.25,0-14.04,6.2-14.04,14.24s5.8,14.24,14.44,14.24c4,0,7.55-1.35,10.4-3.65v5.25c-2.9,1.85-6.85,2.8-10.64,2.8-10.99,0-18.94-7.95-18.94-18.54s7.5-18.74,18.84-18.74Z" fill="#255793"/><path d="m279.82,25.63h4.55l14.94,36.18h-5.1l-4.05-10.09h-16.29l-4.1,10.09h-4.85l14.89-36.18Zm-4.3,21.94h12.99l-2.95-7.5c-1.15-2.9-2.35-6-3.45-8.95h-.1c-1.1,2.95-2.3,6-3.55,9.1l-2.95,7.35Z" fill="#255793"/><path d="m315.23,61.81V25.63h4.5l15.14,20.09c2.1,2.75,4.2,5.6,6.25,8.45l.1-.05c-.05-3.15-.1-6.8-.1-10.29v-18.19h4.6v36.18h-4.5l-15.14-20.09c-2.1-2.75-4.2-5.6-6.25-8.45l-.1.05c.05,3.15.1,6.8.1,10.29v18.19h-4.6Z" fill="#255793"/><path d="m376.52,25.63h4.55l14.94,36.18h-5.1l-4.05-10.09h-16.29l-4.1,10.09h-4.85l14.89-36.18Zm-4.3,21.94h12.99l-2.95-7.5c-1.15-2.9-2.35-6-3.45-8.95h-.1c-1.1,2.95-2.3,6-3.55,9.1l-2.95,7.35Z" fill="#255793"/></g></g></g></svg>