<?xml version="1.0" encoding="UTF-8"?><svg id="uuid-ef42a9b1-4db8-4c71-a0cd-4cb078baf609" xmlns="http://www.w3.org/2000/svg" width="307.9" height="215.37" viewBox="0 0 307.9 215.37"><g id="uuid-93780528-e75f-4e28-ab6a-3ac27b5c1dc4"><g><g><path d="m18.84,178.09c3.8,0,7.35.95,10.2,2.55v5.2c-2.7-2-6.4-3.35-10.24-3.35-8.25,0-14.04,6.2-14.04,14.24s5.8,14.24,14.44,14.24c4,0,7.55-1.35,10.39-3.65v5.25c-2.9,1.85-6.85,2.8-10.64,2.8-10.99,0-18.94-7.95-18.94-18.54s7.5-18.74,18.84-18.74Z" fill="#255793"/><path d="m49.78,178.63h20.89v4.3h-16.14v10.99h14.14v4.15h-14.14v12.44h16.59v4.3h-21.34v-36.18Z" fill="#255793"/><path d="m91.06,178.63h9.8c3.65,0,7.15.15,10.09,1.8,3,1.65,5,4.45,5,8.45s-1.9,6.85-4.65,8.5c-1.3.8-2.65,1.25-4.15,1.5l11.59,15.94h-5.75l-11.04-15.49h-6.15v15.49h-4.75v-36.18Zm10.89,16.79c3.2,0,5.45-.4,7.1-1.65,1.35-1,2.15-2.5,2.15-4.5,0-2.3-1.05-4.1-2.95-5.15-1.95-1.05-4.25-1.2-7.75-1.2h-4.7v12.49h6.15Z" fill="#255793"/><path d="m151.8,178.09c3.8,0,7.35.95,10.19,2.55v5.2c-2.7-2-6.4-3.35-10.24-3.35-8.25,0-14.04,6.2-14.04,14.24s5.8,14.24,14.44,14.24c4,0,7.55-1.35,10.4-3.65v5.25c-2.9,1.85-6.85,2.8-10.64,2.8-10.99,0-18.94-7.95-18.94-18.54s7.5-18.74,18.84-18.74Z" fill="#255793"/><path d="m191.71,178.63h4.55l14.94,36.18h-5.1l-4.05-10.09h-16.29l-4.1,10.09h-4.85l14.89-36.18Zm-4.3,21.94h12.99l-2.95-7.5c-1.15-2.9-2.35-6-3.45-8.95h-.1c-1.1,2.95-2.3,6-3.55,9.1l-2.95,7.35Z" fill="#255793"/><path d="m227.12,214.82v-36.18h4.5l15.14,20.09c2.1,2.75,4.2,5.6,6.25,8.45l.1-.05c-.05-3.15-.1-6.8-.1-10.29v-18.19h4.6v36.18h-4.5l-15.14-20.09c-2.1-2.75-4.2-5.6-6.25-8.45l-.1.05c.05,3.15.1,6.8.1,10.29v18.19h-4.6Z" fill="#255793"/><path d="m288.41,178.63h4.55l14.94,36.18h-5.1l-4.05-10.09h-16.29l-4.1,10.09h-4.85l14.89-36.18Zm-4.3,21.94h12.99l-2.95-7.5c-1.15-2.9-2.35-6-3.45-8.95h-.1c-1.1,2.95-2.3,6-3.55,9.1l-2.95,7.35Z" fill="#255793"/></g><g><path d="m200.78,119.23c-3.19,0-6.2-.73-8.91-1.99-3.7,2.74-7.68,4.9-11.82,6.51-.1.04-.19.08-.29.11-1.1.42-2.2.8-3.31,1.14-.02,0-.03,0-.05.01-1.04.31-2.09.59-3.15.83-.22.05-.45.11-.67.15-1.08.24-2.17.44-3.26.61-.13.02-.26.03-.38.05-1.01.14-2.02.26-3.04.34-.23.02-.46.04-.69.06-1.12.08-2.24.12-3.37.12-.31,0-.62,0-.94-.01-.5,0-1.01-.02-1.51-.04-.39-.02-.79-.05-1.18-.07-.42-.03-.85-.06-1.27-.1-.45-.04-.91-.09-1.36-.15-.35-.04-.71-.08-1.06-.13-.5-.07-.99-.15-1.49-.24-.31-.05-.61-.11-.92-.16-.52-.1-1.03-.21-1.55-.32-.29-.06-.57-.13-.86-.2-.51-.12-1.02-.26-1.53-.4-.29-.08-.59-.16-.88-.25-.48-.14-.96-.29-1.44-.45-.33-.11-.65-.22-.98-.33-.43-.15-.86-.31-1.28-.47-.37-.14-.75-.29-1.12-.44-.37-.15-.73-.3-1.09-.46-.43-.19-.85-.38-1.27-.58-.3-.14-.59-.28-.89-.43-.47-.23-.94-.47-1.41-.72-.24-.13-.48-.26-.72-.39-.5-.28-1-.56-1.49-.86-.2-.12-.4-.24-.6-.36-.51-.31-1.01-.64-1.51-.97-.18-.12-.36-.25-.54-.37-.49-.34-.98-.68-1.46-1.04-.19-.14-.37-.28-.56-.42-.46-.35-.91-.7-1.36-1.07-.21-.17-.42-.35-.63-.53-.41-.34-.81-.69-1.21-1.05-.25-.22-.5-.46-.74-.69-.35-.33-.7-.66-1.04-1-.29-.28-.56-.57-.84-.86-.23-.24-.47-.47-.69-.71-.07-.07-.13-.15-.2-.22-.29-.32-.57-.64-.85-.97-.27-.31-.55-.62-.81-.94-.24-.29-.47-.59-.71-.89-.29-.37-.59-.73-.87-1.1-.13-.17-.24-.34-.37-.51-2.28-3.12-4.16-6.43-5.64-9.87-.04-.1-.09-.2-.13-.3-.23-.54-.44-1.09-.65-1.64-.09-.23-.19-.46-.27-.69-.16-.45-.31-.91-.46-1.36-.11-.34-.23-.67-.34-1.02-.11-.36-.21-.73-.31-1.09-.12-.44-.26-.87-.37-1.32-.05-.21-.1-.43-.15-.64-.24-.98-.44-1.97-.62-2.96-.07-.41-.16-.83-.22-1.24-.05-.32-.08-.64-.13-.96-.07-.51-.14-1.03-.2-1.54-.03-.29-.05-.59-.07-.88-.05-.55-.1-1.1-.13-1.65-.02-.29-.02-.58-.03-.88-.02-.55-.04-1.11-.04-1.66,0-.33,0-.66.01-.99,0-.5.02-1,.04-1.5.02-.4.05-.8.07-1.2.03-.42.06-.83.09-1.25.04-.46.1-.93.15-1.39.04-.34.08-.69.13-1.03.07-.51.15-1.02.24-1.52.05-.29.1-.59.16-.88.1-.53.21-1.06.33-1.59.06-.27.12-.54.19-.81.13-.53.26-1.06.41-1.58.08-.28.15-.55.23-.82.15-.5.3-1,.47-1.5.1-.3.2-.61.31-.91.16-.45.32-.9.49-1.35.13-.35.27-.7.41-1.04.16-.39.32-.78.49-1.17.17-.4.35-.8.54-1.19.15-.33.31-.65.47-.97.22-.44.44-.88.67-1.31.14-.27.29-.54.44-.81.26-.47.53-.93.8-1.39.14-.23.28-.47.43-.7.29-.47.59-.94.9-1.41.15-.22.29-.44.44-.65.31-.46.63-.91.96-1.36.17-.23.34-.46.51-.68.32-.42.64-.83.98-1.24.21-.26.42-.51.64-.76.31-.36.62-.73.94-1.08.27-.3.55-.59.82-.89.28-.3.57-.6.86-.9.34-.34.69-.68,1.04-1.01.19-.19.38-.38.58-.56.05-.04.09-.08.14-.12.83-.76,1.67-1.49,2.54-2.19.19-.15.38-.3.57-.44.79-.62,1.6-1.22,2.42-1.79.12-.08.23-.17.35-.25.91-.62,1.84-1.2,2.78-1.76.21-.12.42-.24.62-.36.93-.53,1.87-1.04,2.82-1.5.03-.02.06-.03.09-.05,1.05-.51,2.11-.98,3.18-1.41.11-.04.21-.08.32-.13,5.8-2.3,12.12-3.58,18.74-3.58,10.27,0,19.83,3.06,27.82,8.3-3.77,5.61-6.8,11.76-8.99,18.3-5.2-4.05-11.73-6.48-18.83-6.48-.91,0-1.8.06-2.68.14,0,0,0,0,0,.01-.77.07-1.53.17-2.29.29-.08.01-.16.02-.24.04-.72.12-1.43.27-2.13.45-.17.04-.34.09-.5.13-.66.17-1.32.36-1.97.58-.21.07-.41.15-.62.23-.62.22-1.23.45-1.83.71-.25.11-.49.24-.74.36-.83.39-1.65.82-2.45,1.28-.5.29-1,.58-1.49.9-.31.2-.6.43-.9.65-.46.33-.92.66-1.36,1.02-.3.24-.59.5-.89.76-.26.22-.53.43-.78.67-.14.13-.25.27-.38.39-.4.38-.78.78-1.15,1.18-.33.35-.66.7-.97,1.07-.32.38-.62.77-.92,1.16-.32.41-.64.82-.93,1.25-.26.38-.5.77-.75,1.17-.29.45-.57.91-.83,1.37-.23.41-.43.83-.64,1.25-.23.47-.47.93-.68,1.4-.2.46-.37.93-.55,1.39-.17.46-.35.91-.5,1.37-.16.49-.29,1-.43,1.5-.12.46-.25.92-.36,1.39-.11.49-.19.99-.27,1.49-.09.5-.17,1.01-.23,1.52-.05.46-.09.93-.12,1.39-.04.56-.08,1.12-.08,1.69,0,.44,0,.89.01,1.33.01.57.04,1.14.09,1.72.04.46.09.91.15,1.37.07.53.15,1.07.24,1.6.08.47.18.94.29,1.41.12.51.25,1.01.39,1.51.13.46.27.92.43,1.38.17.49.35.98.54,1.47.17.44.36.88.55,1.32.21.48.44.95.68,1.42.22.42.44.84.68,1.26.26.45.53.89.81,1.33.27.42.55.83.84,1.23.29.41.59.81.9,1.2.33.41.67.82,1.02,1.22.19.22.36.45.56.67.13.14.28.26.41.4.37.38.74.74,1.13,1.1.37.35.74.69,1.12,1.02.36.31.73.59,1.1.88.43.33.86.67,1.31.98.36.25.73.47,1.09.7.48.3.95.6,1.44.88.39.22.79.41,1.19.61.49.24.97.49,1.46.7.44.19.89.36,1.34.53.47.18.95.37,1.43.52.48.16.97.28,1.45.41.48.13.95.26,1.43.37.48.11.97.18,1.46.27.51.09,1.03.17,1.54.24.46.05.92.08,1.38.12.57.04,1.13.08,1.7.09.51,0,1.01,0,1.52-.02.41-.01.81-.02,1.21-.05.55-.04,1.09-.11,1.64-.17.38-.05.77-.09,1.15-.15.55-.09,1.09-.22,1.64-.34.96-.21,1.91-.47,2.85-.78.22-.07.44-.13.66-.2.62-.22,1.22-.47,1.82-.73.21-.09.41-.17.62-.26.62-.28,1.22-.59,1.83-.91.16-.09.32-.17.48-.26.63-.35,1.24-.72,1.85-1.11.08-.05.16-.11.24-.16.4-.26.79-.52,1.18-.8,0-.01,0-.03,0-.04-.14-1-.25-2.01-.25-3.05,0-10.67,7.93-19.5,18.21-20.97,0-.24-.02-.47-.02-.71,0-9.76,2.56-18.94,7.03-26.9,4.33-7.7,10.44-14.27,17.79-19.12-2.15-2.84-4.49-5.54-7.02-8.05-2.58-2.58-5.35-4.97-8.28-7.16-12.73-9.5-28.52-15.12-45.62-15.12-42.17,0-76.35,34.18-76.35,76.35s34.18,76.35,76.35,76.35c17.1,0,32.89-5.62,45.62-15.12,2.93-2.19,5.7-4.58,8.28-7.16,2.52-2.51,4.86-5.21,7.02-8.05-3.27-2.16-6.29-4.68-9.02-7.48-3.56,2.7-7.98,4.33-12.78,4.33Z" fill="#255793"/><polygon points="105.69 128.28 105.7 128.29 105.69 128.28 105.69 128.28" fill="#255793"/><circle cx="200.78" cy="98.03" r="7.16" fill="#255793"/></g></g></g></svg>