<?xml version="1.0" encoding="UTF-8"?>
<svg id="Layer_2" data-name="Layer 2" xmlns="http://www.w3.org/2000/svg" viewBox="0 0 207.68 44.35">
  <defs>
    <style>
      .cls-1 {
        fill: #9c9c9c;
      }
    </style>
  </defs>
  <g id="Layer_1-2" data-name="Layer 1">
    <g>
      <g>
        <g>
          <path d="M42.57,42.31h-8.32v-.68l2.52-.54v-23.69l-2.52-.94v-.47l5.51-1.76h.32v26.86l2.48.54v.68Z"/>
          <path d="M53.59,42.31h-8.86v-.72l2.74-.54v-14.98l-2.66-.97v-.5l5.76-1.73h.32v18.18l2.7.54v.72Z"/>
          <path d="M86.2,41.59v.72h-8.82v-.72l2.7-.5v-10.58c0-1.75-.14-3.08-.43-4-.36-1.1-1.18-1.66-2.45-1.66-.89,0-1.73.2-2.54.59-.8.4-1.52.97-2.14,1.71.05.96.07,1.96.07,2.99v10.94l2.7.5v.72h-8.82v-.72l2.7-.5v-10.58c0-1.61-.14-2.94-.43-4-.38-1.1-1.2-1.66-2.45-1.66-.86,0-1.7.19-2.5.58-.8.38-1.51.94-2.11,1.66v13.97l2.7.54v.72h-8.86v-.72l2.74-.54v-14.94l-2.66-1.01v-.47l5.58-1.76h.36v3.06c1.03-.98,2.13-1.74,3.29-2.27,1.16-.53,2.32-.79,3.47-.79.86,0,1.64.19,2.32.58.68.38,1.18.91,1.49,1.58.14.29.24.6.29.94,1.03-.98,2.14-1.75,3.31-2.29,1.18-.54,2.34-.81,3.49-.81.86,0,1.63.19,2.3.58.67.38,1.18.91,1.51,1.58.19.38.32.91.38,1.58.06.67.09,1.85.09,3.53v10.94l2.7.5Z"/>
          <path d="M97.04,42.31h-8.86v-.72l2.74-.54v-14.98l-2.66-.97v-.5l5.76-1.73h.32v18.18l2.7.54v.72Z"/>
          <path d="M119.11,41.59v.72h-8.82v-.72l2.7-.5v-10.58c0-1.06-.03-1.89-.09-2.5-.06-.61-.17-1.11-.34-1.49-.46-1.1-1.39-1.66-2.81-1.66-.86,0-1.7.19-2.5.58-.8.38-1.51.94-2.11,1.66v13.97l2.7.54v.72h-8.86v-.72l2.74-.54v-14.94l-2.66-1.01v-.47l5.58-1.76h.36v3.06c1.03-.98,2.13-1.74,3.29-2.27,1.16-.53,2.32-.79,3.47-.79.96,0,1.81.19,2.56.58.74.38,1.28.91,1.62,1.58.19.38.32.89.38,1.53.06.64.09,1.83.09,3.58v10.94l2.7.5Z"/>
          <path d="M122.83,41.44c-.8-.82-1.21-1.87-1.21-3.17,0-1.06.32-1.96.95-2.72.64-.76,1.67-1.42,3.1-2,1.43-.58,3.37-1.13,5.81-1.66v-3.53c0-1.51-.22-2.58-.65-3.2s-1.18-.94-2.23-.94-1.85.25-2.45.74c-.6.49-.9,1.16-.9,2,0,.22.01.43.04.63.02.2.04.41.04.63,0,.6-.17,1.1-.52,1.49-.35.4-.8.59-1.35.59-.48,0-.88-.16-1.19-.47-.31-.31-.47-.73-.47-1.26,0-.79.35-1.61,1.06-2.45.71-.84,1.65-1.56,2.83-2.16,1.44-.74,2.96-1.12,4.57-1.12,1.03,0,1.91.17,2.63.5.72.34,1.24.8,1.55,1.4.19.41.32.91.38,1.51.06.6.09,1.67.09,3.2v8.24c0,1.18.09,1.97.27,2.39.18.42.53.63,1.06.63.34,0,.64-.08.9-.23.26-.16.55-.43.86-.81l.61.54c-.55.86-1.12,1.48-1.71,1.85-.59.37-1.27.56-2.03.56-.96,0-1.7-.26-2.23-.79-.53-.53-.85-1.34-.97-2.45l-.11-.07c-.7,1.03-1.55,1.84-2.56,2.43s-2.03.88-3.06.88c-1.27,0-2.31-.41-3.11-1.22ZM129.73,39.91c.7-.42,1.28-1.01,1.76-1.78v-5.18c-1.73.34-3.07.7-4.01,1.08-.95.38-1.63.85-2.03,1.4-.41.55-.61,1.25-.61,2.09,0,.96.23,1.7.7,2.23.47.53,1.13.79,2,.79.77,0,1.5-.21,2.2-.63Z"/>
          <path d="M148.12,42.31h-8.32v-.68l2.52-.54v-23.69l-2.52-.94v-.47l5.51-1.76h.32v26.86l2.48.54v.68Z"/>
          <path d="M163.58,42.31h-11.52v-1.26l3.06-.72V14.7l-3.06-.97v-.86l7.88-2.47h.76v29.93l2.88.72v1.26Z"/>
          <path d="M166.89,41.53c-.84-.76-1.26-1.79-1.26-3.11,0-1.8.85-3.24,2.56-4.32s4.37-1.87,7.99-2.38v-2.63c0-1.13-.07-1.98-.2-2.56-.13-.58-.35-.98-.65-1.22-.3-.24-.75-.36-1.35-.36-.91,0-1.63.22-2.14.67-.52.44-.77,1.04-.77,1.78,0,.17.02.44.07.83.05.34.07.59.07.76,0,.67-.24,1.24-.72,1.71-.48.47-1.07.7-1.76.7s-1.27-.23-1.71-.68c-.44-.46-.67-1.04-.67-1.76,0-.77.25-1.52.76-2.27.5-.74,1.2-1.42,2.09-2.02,1.85-1.2,4.12-1.8,6.8-1.8,2.5,0,4.14.6,4.93,1.8.29.46.5,1.05.63,1.78.13.73.2,1.75.2,3.04v7.42c0,1.06.11,1.82.32,2.3.22.48.56.72,1.04.72.55,0,1.08-.29,1.58-.86l.83,1.19c-.77.82-1.58,1.42-2.43,1.82-.85.4-1.79.59-2.83.59-1.15,0-2.03-.23-2.65-.7-.61-.47-1.01-1.18-1.21-2.14h-.14c-1.75,1.9-3.72,2.84-5.9,2.84-1.49,0-2.65-.38-3.49-1.13ZM176.18,38.24v-4.82c-1.18.24-2.09.5-2.74.79-.65.29-1.11.64-1.39,1.06-.28.42-.41.98-.41,1.67,0,.79.17,1.38.5,1.76.34.38.85.58,1.55.58,1.01,0,1.84-.35,2.48-1.04Z"/>
          <path d="M192.52,41.01h-.22l-3.1,1.3h-1.04V4.25l-3.02-.97v-.83l7.81-2.45h.79v25.42c.84-.82,1.76-1.45,2.77-1.89,1.01-.44,2.08-.67,3.2-.67,1.56,0,2.94.38,4.14,1.15,1.2.77,2.14,1.84,2.81,3.22.67,1.38,1.01,2.96,1.01,4.73,0,1.99-.43,3.8-1.28,5.44-.85,1.63-2.03,2.92-3.53,3.85s-3.15,1.4-4.95,1.4c-2.02,0-3.82-.55-5.4-1.66ZM200.39,38.6c.8-1.42,1.21-3.29,1.21-5.62s-.38-4.1-1.13-5.38c-.76-1.28-1.83-1.93-3.22-1.93s-2.56.7-3.49,2.09v8.42c0,1.37.32,2.47.95,3.29.64.83,1.47,1.24,2.5,1.24,1.32,0,2.38-.71,3.19-2.12Z"/>
        </g>
        <circle cx="49.16" cy="16.54" r="2.32"/>
        <circle cx="92.61" cy="16.54" r="2.32"/>
      </g>
      <g>
        <g>
          <path d="M30.03,24.92c-.18-.65-.78-1.1-1.46-1.1-.23,0-.46.05-.67.16-.65.32-.99,1.05-.79,1.74.63,2.22.63,4.57-.02,6.77-1.52,5.21-6.37,8.85-11.79,8.85-1.16,0-2.32-.17-3.45-.5-1.32-.39-2.58-1.01-3.72-1.84-.25-.18-.55-.28-.87-.28-.38,0-.75.15-1.03.41-.34.32-.52.76-.49,1.21.03.45.25.86.62,1.12,1.41,1.02,2.98,1.79,4.65,2.27,1.4.41,2.85.62,4.3.62,6.75,0,12.79-4.53,14.69-11.02.8-2.75.81-5.66.03-8.42Z"/>
          <path d="M15.3,16.75c1.16,0,2.32.17,3.45.5,1.28.37,2.48.95,3.58,1.72.25.17.54.27.85.27.4,0,.78-.16,1.07-.44.32-.32.48-.76.44-1.2-.04-.44-.27-.84-.63-1.1-1.36-.95-2.86-1.67-4.45-2.14-1.4-.41-2.85-.62-4.3-.62-6.75,0-12.79,4.53-14.69,11.02-.78,2.65-.81,5.47-.11,8.15.17.66.77,1.12,1.46,1.12.21,0,.41-.04.6-.13.69-.3,1.06-1.05.87-1.75-.57-2.16-.55-4.42.08-6.55,1.52-5.21,6.37-8.85,11.79-8.85Z"/>
        </g>
        <g>
          <circle class="cls-1" cx="26.7" cy="21.04" r="1.93"/>
          <path class="cls-1" d="M3.47,35.06c-1.06,0-1.93.87-1.93,1.93s.87,1.93,1.93,1.93,1.93-.87,1.93-1.93-.87-1.93-1.93-1.93Z"/>
          <path class="cls-1" d="M22.65,20.84c-.24-.1-.5-.15-.74-.15-.14,0-.27.02-.4.05-3.75.98-5.7,4.12-7.25,7.37l-.25.52c-.65,1.39-1.33,2.82-2.34,3.99-.49.57-1.04,1.02-1.58,1.31-.47.25-1.01.4-1.49.4h-.09s-.08,0-.08,0c-.86,0-1.83.53-1.94,1.5,0,.02-.01.04-.01.07-.02.3.06.6.23.89.33.54.95.91,1.59.94.1,0,.2,0,.3,0,3.31,0,6.2-2.23,8.34-6.44.22-.44.45-.93.68-1.44,1.06-2.3,2.38-5.16,4.71-5.77.48-.12.89-.38,1.17-.7.31-.38.42-.83.3-1.3-.13-.53-.57-1-1.16-1.23ZM8.6,34.58h0s0,0,0,0Z"/>
        </g>
      </g>
    </g>
  </g>
</svg>